<?xml version="1.0" encoding="UTF-8"?>
<svg id="Layer_1" xmlns="http://www.w3.org/2000/svg" viewBox="0 0 1080 1080">
  <defs>
    <style>
      .cls-1 {
        fill: #5b5b5b;
      }

      .cls-2 {
        fill: #d5621c;
      }
    </style>
  </defs>
  <polygon class="cls-2" points="517.85 524.39 362.37 524.39 18.76 71.19 176.54 71.19 517.85 524.39"/>
  <polygon class="cls-2" points="706.64 524.39 551.16 524.39 207.56 71.19 365.33 71.19 706.64 524.39"/>
  <polygon class="cls-2" points="207.56 1008.81 363.04 1008.81 706.64 555.61 548.87 555.61 207.56 1008.81"/>
  <polygon class="cls-1" points="646.66 410.04 727.05 514.44 1061.24 73.67 903.46 73.67 646.66 410.04"/>
  <polygon class="cls-2" points="18.76 1008.81 174.24 1008.81 517.85 555.61 360.08 555.61 18.76 1008.81"/>
  <polygon class="cls-1" points="555.97 282.31 632.5 383.2 869.06 71.19 711.29 71.19 555.97 282.31"/>
  <polygon class="cls-1" points="646.66 668.71 727.05 564.3 1061.24 1005.08 903.46 1005.08 646.66 668.71"/>
  <polygon class="cls-1" points="555.97 791.48 632.5 690.59 869.06 1002.6 711.29 1002.6 555.97 791.48"/>
</svg>