<?xml version="1.0" encoding="UTF-8"?>
<svg id="Layer_1" data-name="Layer 1" xmlns="http://www.w3.org/2000/svg" viewBox="0 0 920.31 343.28">
  <defs>
    <style>
      .cls-1 {
        fill: #fff;
      }

      .cls-2 {
        fill: #fa871c;
      }

      .cls-3 {
        fill: #454545;
      }
    </style>
  </defs>
  <g>
    <path class="cls-3" d="M22.72,228.08c4.93,0,8.92,3.99,8.92,8.92v11.42c0,4.24-3.43,7.67-7.67,7.67H8.91v14H2.07v-42.01H22.72Zm.78,7.36H9.1v13.17h14.39v-13.17Z"/>
    <path class="cls-3" d="M307.78,297.51c4.93,0,8.92,3.99,8.92,8.92v11.42c0,4.24-3.43,7.67-7.67,7.67h-15.06v14h-6.83v-42.01h20.64Zm.78,7.36h-14.39v13.17h14.39v-13.17Z"/>
    <path class="cls-3" d="M177.98,228.08c4.93,0,8.92,3.99,8.92,8.92v11.42c0,4.24-3.43,7.67-7.67,7.67h-15.06v14h-6.83v-42.01h20.64Zm.78,7.36h-14.39v13.17h14.39v-13.17Z"/>
    <path class="cls-3" d="M83.38,270.09l-7.65-14.25h-.45c3.31-.85,5.76-3.84,5.76-7.42v-11.42c0-4.93-3.99-8.92-8.92-8.92h-20.64v42.01h6.83v-14h10.14l7.52,14h7.42Zm-24.88-34.65h14.39v13.17h-14.39v-13.17Z"/>
    <path class="cls-3" d="M287.43,270.09l-7.65-14.25h-.45c3.31-.85,5.76-3.84,5.76-7.42v-11.42c0-4.93-3.99-8.92-8.92-8.92h-20.64v42.01h6.83v-14h10.14l7.52,14h7.42Zm-24.88-34.65h14.39v13.17h-14.39v-13.17Z"/>
    <path class="cls-3" d="M126.8,228.08h-17.02c-4.24,0-7.67,3.43-7.67,7.67v26.13c0,4.93,3.99,8.92,8.92,8.92h17.02c4.24,0,7.67-3.43,7.67-7.67v-26.13c0-4.93-3.99-8.92-8.92-8.92Zm.78,35.25h-9.55v.11h-7.77v-27.88h9.55v-.11h7.77v27.88Z"/>
    <path class="cls-3" d="M259.56,297.1h-17.02c-4.24,0-7.67,3.43-7.67,7.67v26.13c0,4.93,3.99,8.92,8.92,8.92h17.02c4.24,0,7.67-3.43,7.67-7.67v-26.13c0-4.93-3.99-8.92-8.92-8.92Zm.78,35.25h-9.55v.11h-7.77v-27.88h9.55v-.11h7.77v27.88Z"/>
    <path class="cls-3" d="M25.25,297.1H2.33v42.72H26.5c4.24,0,7.67-3.43,7.67-7.67v-26.13c0-4.93-3.99-8.92-8.92-8.92Zm.78,28.69c0,3.62-2.94,6.56-6.56,6.56h-2.99v.11h-6.01v-27.88h7.78s.83,.02,.83,.02c3.85,.04,6.94,3.17,6.94,7.02v14.18Z"/>
    <polygon class="cls-3" points="335.87 228.08 301.92 228.08 301.92 235.11 315.38 235.11 315.38 269.75 322.41 269.75 322.41 235.11 335.87 235.11 335.87 228.08"/>
    <polygon class="cls-3" points="527.36 298.08 493.41 298.08 493.41 305.11 506.87 305.11 506.87 339.75 513.9 339.75 513.9 305.11 527.36 305.11 527.36 298.08"/>
    <polygon class="cls-3" points="371.4 254.58 371.32 254.44 385.72 228.19 378.16 228.08 367.97 246.17 366.66 246.17 356.46 228.08 348.91 228.19 363.22 254.29 363.22 269.75 371.07 269.75 371.07 254.88 371.17 254.7 371.4 254.58"/>
    <polygon class="cls-3" points="234.88 235.44 234.88 228.41 214.37 228.41 214.37 228.08 207.34 228.08 207.34 270.09 212.98 270.09 214.37 270.09 234.88 270.09 234.88 263.06 214.37 263.06 214.37 252.6 233.32 252.6 233.32 245.57 214.37 245.57 214.37 235.44 234.88 235.44"/>
    <polygon class="cls-3" points="79.47 304.87 79.47 297.84 58.96 297.84 58.96 297.51 51.93 297.51 51.93 339.52 57.57 339.52 58.96 339.52 79.47 339.52 79.47 332.49 58.96 332.49 58.96 322.03 77.91 322.03 77.91 315 58.96 315 58.96 304.87 79.47 304.87"/>
    <polygon class="cls-3" points="175.82 304.87 175.82 297.84 155.32 297.84 155.32 297.51 148.29 297.51 148.29 339.52 153.93 339.52 155.32 339.52 175.82 339.52 175.82 332.49 155.32 332.49 155.32 322.03 174.27 322.03 174.27 315 155.32 315 155.32 304.87 175.82 304.87"/>
    <polygon class="cls-3" points="426.88 304.87 426.88 297.84 406.37 297.84 406.37 297.51 399.35 297.51 399.35 339.52 404.99 339.52 406.37 339.52 426.88 339.52 426.88 332.49 406.37 332.49 406.37 322.03 425.32 322.03 425.32 315 406.37 315 406.37 304.87 426.88 304.87"/>
    <polygon class="cls-3" points="123.37 298.56 112.7 333.15 102.04 298.56 94.79 298.56 107.74 340.57 110.42 340.57 114.99 340.57 117.67 340.57 130.62 298.56 123.37 298.56"/>
    <polygon class="cls-3" points="200.04 332.27 200.04 297.51 192.78 297.51 192.78 332.27 192.78 339.52 200.04 339.52 219.46 339.52 219.46 332.27 200.04 332.27"/>
    <polygon class="cls-3" points="477.35 297.76 469.45 297.76 469.45 325.34 452.18 298.24 452.18 297.76 444.28 297.76 444.28 340.02 452.18 340.02 452.18 312.93 469.48 340.08 469.58 340.02 477.35 340.02 477.35 297.76"/>
    <polygon class="cls-3" points="369.83 297.76 368.71 297.76 356.87 323.12 344.44 297.76 343.32 297.76 335.42 297.76 335.42 340.02 343.32 340.02 343.32 314.91 353.29 333.56 354.58 333.56 359.15 333.56 360.49 333.56 369.83 315.54 369.83 340.02 377.73 340.02 377.73 297.76 369.83 297.76"/>
  </g>
  <polygon class="cls-2" points="722.48 165.98 666.47 165.98 542.68 2.71 599.52 2.71 722.48 165.98"/>
  <polygon class="cls-2" points="790.49 165.98 734.48 165.98 610.69 2.71 667.53 2.71 790.49 165.98"/>
  <polygon class="cls-2" points="610.69 340.57 666.7 340.57 790.49 177.3 733.65 177.3 610.69 340.57"/>
  <polygon class="cls-2" points="542.68 340.57 598.69 340.57 722.48 177.3 665.64 177.3 542.68 340.57"/>
  <polygon class="cls-3" points="316.45 185.42 248.82 2.87 248.88 2.71 248.76 2.71 195.26 2.71 195.14 2.71 195.2 2.87 127.57 185.42 180.86 185.42 222.01 74.88 263.16 185.42 316.45 185.42"/>
  <polygon class="cls-3" points="513.62 2.71 477.93 2.71 467.26 2.71 423.9 106.18 382.08 2.71 370.91 2.71 333.57 2.71 320.56 2.71 320.56 185.42 370.91 185.42 370.91 95.72 406.92 185.42 406.93 185.42 440.26 185.42 440.27 185.42 477.93 91.6 477.93 185.42 528.28 185.42 528.28 2.71 513.62 2.71"/>
  <path class="cls-3" d="M134.85,129.51v8.72c0,26.06-21.12,47.18-47.18,47.18H20.83s-18.75,0-18.75,0V2.71H80.37c26.07,0,47.2,21.13,47.2,47.2v9.11c0,12.4-7.13,23.13-17.5,28.34,14.78,8.24,24.78,24.02,24.78,42.15ZM77.34,59.39h0c0-6.77-5.49-12.25-12.25-12.25h-15.99v24.34h16.16c6.67,0,12.09-5.41,12.09-12.09Zm8.17,67.97h0c0-7.7-6.24-13.95-13.95-13.95h-23.39s0,27.71,0,27.71h23.58c7.6,0,13.76-6.16,13.76-13.76Z"/>
  <polygon class="cls-1" points="768.88 123.89 797.85 161.5 918.24 2.71 861.4 2.71 768.88 123.89"/>
  <polygon class="cls-1" points="736.21 78.77 763.78 115.11 849.01 2.71 792.17 2.71 736.21 78.77"/>
  <polygon class="cls-1" points="768.88 219.39 797.85 181.77 918.24 340.57 861.4 340.57 768.88 219.39"/>
  <polygon class="cls-1" points="736.21 264.51 763.78 228.16 849.01 340.57 792.17 340.57 736.21 264.51"/>
</svg>