<?xml version="1.0" encoding="UTF-8"?>
<svg id="Layer_1" xmlns="http://www.w3.org/2000/svg" viewBox="0 0 1080 406.34">
  <defs>
    <style>
      .cls-1 {
        fill: #fff;
      }

      .cls-2 {
        fill: #d5621c;
      }
    </style>
  </defs>
  <g>
    <path class="cls-1" d="M30.91,270.83c5.73,0,10.38,4.65,10.38,10.38v13.29c0,4.93-4,8.92-8.92,8.92H14.84v16.3h-7.95v-48.89h24.03ZM31.81,279.4H15.06v15.33h16.75v-15.33Z"/>
    <path class="cls-1" d="M362.66,351.64c5.73,0,10.38,4.65,10.38,10.38v13.29c0,4.93-4,8.92-8.92,8.92h-17.53v16.3h-7.95v-48.89h24.03ZM363.57,360.2h-16.75v15.33h16.75v-15.33Z"/>
    <path class="cls-1" d="M211.6,270.83c5.73,0,10.38,4.65,10.38,10.38v13.29c0,4.93-4,8.92-8.92,8.92h-17.53v16.3h-7.95v-48.89h24.03ZM212.5,279.4h-16.75v15.33h16.75v-15.33Z"/>
    <path class="cls-1" d="M101.51,319.72l-8.9-16.59h-.52c3.85-.99,6.7-4.47,6.7-8.63v-13.29c0-5.73-4.65-10.38-10.38-10.38h-24.03v48.89h7.95v-16.3h11.8l8.75,16.3h8.63ZM72.55,279.4h16.75v15.33h-16.75v-15.33Z"/>
    <path class="cls-1" d="M338.98,319.72l-8.9-16.59h-.52c3.85-.99,6.7-4.47,6.7-8.63v-13.29c0-5.73-4.65-10.38-10.38-10.38h-24.03v48.89h7.95v-16.3h11.8l8.75,16.3h8.63ZM310.02,279.4h16.75v15.33h-16.75v-15.33Z"/>
    <path class="cls-1" d="M152.03,270.83h-19.81c-4.93,0-8.92,4-8.92,8.92v30.41c0,5.73,4.65,10.38,10.38,10.38h19.81c4.93,0,8.92-4,8.92-8.92v-30.41c0-5.73-4.65-10.38-10.38-10.38ZM152.94,311.85h-11.11v.13h-9.05v-32.45h11.11v-.13h9.05v32.45Z"/>
    <path class="cls-1" d="M306.55,351.16h-19.81c-4.93,0-8.92,4-8.92,8.92v30.41c0,5.73,4.65,10.38,10.38,10.38h19.81c4.93,0,8.92-4,8.92-8.92v-30.41c0-5.73-4.65-10.38-10.38-10.38ZM307.45,392.18h-11.11v.13h-9.05v-32.45h11.11v-.13h9.05v32.45Z"/>
    <path class="cls-1" d="M33.86,351.16H7.18v49.72h28.13c4.93,0,8.92-4,8.92-8.92v-30.41c0-5.73-4.65-10.38-10.38-10.38ZM34.76,384.55c0,4.21-3.42,7.63-7.63,7.63h-3.49v.13h-6.99v-32.45h9.06s.96.02.96.02c4.48.05,8.08,3.69,8.08,8.17v16.5Z"/>
    <polygon class="cls-1" points="395.35 270.83 355.84 270.83 355.84 279.01 371.51 279.01 371.51 319.34 379.69 319.34 379.69 279.01 395.35 279.01 395.35 270.83"/>
    <polygon class="cls-1" points="618.21 352.3 578.7 352.3 578.7 360.48 594.36 360.48 594.36 400.8 602.54 400.8 602.54 360.48 618.21 360.48 618.21 352.3"/>
    <polygon class="cls-1" points="436.7 301.67 436.61 301.51 453.36 270.97 444.57 270.83 432.71 291.88 431.18 291.88 419.32 270.83 410.53 270.97 427.19 301.34 427.19 319.34 436.33 319.34 436.33 302.03 436.44 301.82 436.7 301.67"/>
    <polygon class="cls-1" points="277.82 279.4 277.82 271.22 253.95 271.22 253.95 270.83 245.77 270.83 245.77 319.72 252.34 319.72 253.95 319.72 277.82 319.72 277.82 311.54 253.95 311.54 253.95 299.37 276.01 299.37 276.01 291.19 253.95 291.19 253.95 279.4 277.82 279.4"/>
    <polygon class="cls-1" points="96.95 360.2 96.95 352.02 73.09 352.02 73.09 351.64 64.91 351.64 64.91 400.53 71.47 400.53 73.09 400.53 96.95 400.53 96.95 392.35 73.09 392.35 73.09 380.17 95.14 380.17 95.14 371.99 73.09 371.99 73.09 360.2 96.95 360.2"/>
    <polygon class="cls-1" points="209.09 360.2 209.09 352.02 185.23 352.02 185.23 351.64 177.05 351.64 177.05 400.53 183.61 400.53 185.23 400.53 209.09 400.53 209.09 392.35 185.23 392.35 185.23 380.17 207.28 380.17 207.28 371.99 185.23 371.99 185.23 360.2 209.09 360.2"/>
    <polygon class="cls-1" points="501.27 360.2 501.27 352.02 477.41 352.02 477.41 351.64 469.23 351.64 469.23 400.53 475.79 400.53 477.41 400.53 501.27 400.53 501.27 392.35 477.41 392.35 477.41 380.17 499.46 380.17 499.46 371.99 477.41 371.99 477.41 360.2 501.27 360.2"/>
    <polygon class="cls-1" points="148.04 352.86 135.63 393.12 123.22 352.86 114.78 352.86 129.85 401.75 132.97 401.75 138.29 401.75 141.41 401.75 156.48 352.86 148.04 352.86"/>
    <polygon class="cls-1" points="237.27 392.09 237.27 351.64 228.83 351.64 228.83 392.09 228.83 400.53 237.27 400.53 259.87 400.53 259.87 392.09 237.27 392.09"/>
    <polygon class="cls-1" points="560.01 351.92 550.82 351.92 550.82 384.03 530.71 352.49 530.71 351.92 521.52 351.92 521.52 401.11 530.71 401.11 530.71 369.58 550.85 401.18 550.96 401.11 560.01 401.11 560.01 351.92"/>
    <polygon class="cls-1" points="434.88 351.92 433.57 351.92 419.79 381.44 405.33 351.92 404.02 351.92 394.83 351.92 394.83 401.11 404.02 401.11 404.02 371.89 415.63 393.59 417.13 393.59 422.45 393.59 424.01 393.59 434.88 372.63 434.88 401.11 444.07 401.11 444.07 351.92 434.88 351.92"/>
  </g>
  <polygon class="cls-1" points="372.75 221.26 294.05 8.81 294.12 8.63 293.98 8.63 231.71 8.63 231.57 8.63 231.64 8.81 152.94 221.26 214.95 221.26 262.85 92.62 310.74 221.26 372.75 221.26"/>
  <polygon class="cls-1" points="602.22 8.63 560.69 8.63 548.27 8.63 497.8 129.04 449.13 8.63 436.13 8.63 392.67 8.63 377.54 8.63 377.54 221.26 436.13 221.26 436.13 116.88 478.04 221.26 478.05 221.26 516.84 221.26 516.85 221.26 560.69 112.08 560.69 221.26 619.28 221.26 619.28 8.63 602.22 8.63"/>
  <path class="cls-1" d="M161.41,156.2v10.15c0,30.32-24.58,54.91-54.91,54.91H28.71s-21.83,0-21.83,0V8.63h91.12c30.34,0,54.94,24.6,54.94,54.94v10.61c0,14.43-8.29,26.92-20.37,32.98,17.2,9.59,28.84,27.96,28.84,49.05ZM94.48,76.57v-3.99c0-6.77-5.49-12.25-12.25-12.25h-20.62v28.33h20.79c6.67,0,12.09-5.41,12.09-12.09ZM103.98,155.95v-4.54c0-7.7-6.24-13.95-13.95-13.95h-29.51s0,32.24,0,32.24h29.7c7.6,0,13.76-6.16,13.76-13.76Z"/>
  <polygon class="cls-2" points="845.29 198.72 780.1 198.72 636.04 8.71 702.19 8.71 845.29 198.72"/>
  <polygon class="cls-2" points="924.45 198.72 859.26 198.72 715.19 8.71 781.34 8.71 924.45 198.72"/>
  <polygon class="cls-2" points="715.19 401.83 780.38 401.83 924.45 211.81 858.3 211.81 715.19 401.83"/>
  <polygon class="cls-1" points="899.3 150.78 933 194.55 1073.12 9.75 1006.97 9.75 899.3 150.78"/>
  <polygon class="cls-2" points="636.04 401.83 701.22 401.83 845.29 211.81 779.14 211.81 636.04 401.83"/>
  <polygon class="cls-1" points="861.27 97.22 893.36 139.52 992.54 8.71 926.39 8.71 861.27 97.22"/>
  <polygon class="cls-1" points="899.3 259.23 933 215.46 1073.12 400.26 1006.97 400.26 899.3 259.23"/>
  <polygon class="cls-1" points="861.27 310.71 893.36 268.41 992.54 399.22 926.39 399.22 861.27 310.71"/>
</svg>